<svg width="24" height="24" viewBox="0 0 24 24" fill="none"
    xmlns="http://www.w3.org/2000/svg">
    <path d="M16.9965 11.7603C16.9965 12.6624 16.7276 13.5442 16.2238 14.2943C15.72 15.0443 15.0039 15.629 14.1661 15.9742C13.3283 16.3195 12.4063 16.4099 11.5169 16.234C10.6274 16.0581 9.81039 15.6237 9.16907 14.9859C8.52775 14.3481 8.09096 13.5355 7.91391 12.6507C7.73687 11.766 7.82754 10.8489 8.17444 10.0154C8.52135 9.18194 9.10891 8.46949 9.86284 7.96817C10.6168 7.46685 11.5032 7.19917 12.4101 7.19897C13.6262 7.19897 14.7925 7.67954 15.6524 8.53494C16.5124 9.39035 16.9955 10.5505 16.9955 11.7603H16.9965Z" stroke="white" stroke-width="3" stroke-linecap="round" stroke-linejoin="round"/>
    <path d="M12.41 1.7251V3.5494" stroke="white" stroke-width="3" stroke-linecap="round" stroke-linejoin="round"/>
    <path d="M12.41 19.9712V21.7955" stroke="white" stroke-width="3" stroke-linecap="round" stroke-linejoin="round"/>
    <path d="M5.27527 4.66309L6.57544 5.95692" stroke="white" stroke-width="3" stroke-linecap="round" stroke-linejoin="round"/>
    <path d="M18.2432 17.5627L19.5432 18.8566" stroke="white" stroke-width="3" stroke-linecap="round" stroke-linejoin="round"/>
    <path d="M2.32178 11.7603H4.15479" stroke="white" stroke-width="3" stroke-linecap="round" stroke-linejoin="round"/>
    <path d="M20.6644 11.7603H22.4974" stroke="white" stroke-width="3" stroke-linecap="round" stroke-linejoin="round"/>
    <path d="M5.27527 18.8585L6.57544 17.5647" stroke="white" stroke-width="3" stroke-linecap="round" stroke-linejoin="round"/>
    <path d="M18.2432 5.95888L19.5432 4.66504" stroke="white" stroke-width="3" stroke-linecap="round" stroke-linejoin="round"/>
</svg>
